# xmcd
# Track frame offsets:
# 150
# 19257
# 37017
# 53146
# 61686
#
# Disc length: 970 seconds
# Revision: 0
# Processed by: cddbd v1.5.1PL0 Copyright (c) Steve Scherf et al.
# Submitted via: VisiTrax 2.9.5.181 - For more info visit www.synapsa.com
#
DISCID=3a03c805
DTITLE=Sleepy Jackson - Good Dancers
DYEAR=2003
DGENRE=Rock
TTITLE0=Good dancers (Album version)
TTITLE1=Come to this (acoustic)
TTITLE2=Good dancers (acoustic)
TTITLE3=Bucket of Love
TTITLE4=Raindrop
EXTD=
EXTT0=
EXTT1=
EXTT2=
EXTT3=
EXTT4=
PLAYORDER=
